HIERARCHY
ROOT Hips
{
  OFFSET -125.086 92.215 135.881
  CHANNELS 6 Xposition Yposition Zposition Zrotation Xrotation Yrotation
  JOINT LeftUpLeg
  {
    OFFSET 8.64259 1.95398 -2.38835
    CHANNELS 3 Zrotation Xrotation Yrotation
    JOINT LeftLeg
    {
      OFFSET 43.7702 0 0
      CHANNELS 3 Zrotation Xrotation Yrotation
      JOINT LeftFoot
      {
        OFFSET 40.6238 0 0
        CHANNELS 3 Zrotation Xrotation Yrotation
        JOINT LeftToeBase
        {
          OFFSET 12.7242 0 0
          CHANNELS 3 Zrotation Xrotation Yrotation
          End Site
          {
            OFFSET 0 0 0
          }
        }
      }
    }
  }
  JOINT RightUpLeg
  {
    OFFSET -8.2249 1.95398 -2.59336
    CHANNELS 3 Zrotation Xrotation Yrotation
    JOINT RightLeg
    {
      OFFSET 43.5653 0 0
      CHANNELS 3 Zrotation Xrotation Yrotation
      JOINT RightFoot
      {
        OFFSET 40.6238 0 0
        CHANNELS 3 Zrotation Xrotation Yrotation
        JOINT RightToeBase
        {
          OFFSET 12.7242 0 0
          CHANNELS 3 Zrotation Xrotation Yrotation
          End Site
          {
            OFFSET 0 0 0
          }
        }
      }
    }
  }
  JOINT Spine
  {
    OFFSET 0.165834 0.87714 6.61349
    CHANNELS 3 Zrotation Xrotation Yrotation
    JOINT Spine1
    {
      OFFSET 7.38963 1.71661e-005 0
      CHANNELS 3 Zrotation Xrotation Yrotation
      JOINT Spine2
      {
        OFFSET 11.9445 1.14441e-005 0
        CHANNELS 3 Zrotation Xrotation Yrotation
        JOINT Spine3
        {
          OFFSET 14.7254 4.19617e-005 0
          CHANNELS 3 Zrotation Xrotation Yrotation
          JOINT Spine4
          {
            OFFSET 10.9679 0 0
            CHANNELS 3 Zrotation Xrotation Yrotation
            JOINT RightShoulder
            {
              OFFSET 2.46616 -1.6653 3.69651
              CHANNELS 3 Zrotation Xrotation Yrotation
              JOINT RightArm
              {
                OFFSET 13.0012 0 0
                CHANNELS 3 Zrotation Xrotation Yrotation
                JOINT RightForeArm
                {
                  OFFSET 28.7848 1.52588e-005 0
                  CHANNELS 3 Zrotation Xrotation Yrotation
                  JOINT RightHand
                  {
                    OFFSET 26.5688 1.52588e-005 0
                    CHANNELS 3 Zrotation Xrotation Yrotation
                    End Site
                    {
                      OFFSET 0 0 0
                    }
                  }
                }
              }
            }
            JOINT LeftShoulder
            {
              OFFSET 2.38034 -1.29275 -3.7523
              CHANNELS 3 Zrotation Xrotation Yrotation
              JOINT LeftArm
              {
                OFFSET 16.3182 6.10352e-005 0
                CHANNELS 3 Zrotation Xrotation Yrotation
                JOINT LeftForeArm
                {
                  OFFSET 27.0901 0 0
                  CHANNELS 3 Zrotation Xrotation Yrotation
                  JOINT LeftHand
                  {
                    OFFSET 24.5451 1.52588e-005 0
                    CHANNELS 3 Zrotation Xrotation Yrotation
                    End Site
                    {
                      OFFSET 0 0 0
                    }
                  }
                }
              }
            }
            JOINT Neck
            {
              OFFSET 5.0226 -0.0266342 0
              CHANNELS 3 Zrotation Xrotation Yrotation
              JOINT Head
              {
                OFFSET 6.69363 2.86102e-005 0
                CHANNELS 3 Zrotation Xrotation Yrotation
                End Site
                {
                  OFFSET 0 0 0
                }
              }
            }
          }
        }
      }
    }
  }
}
MOTION
Frames:	18
Frame Time:	0.0416667
6.97415 88.5168 2.50641 100.066 -29.7831 94.9773 -174.956 -9.2652 87.0079 -40.6614 11.7509 4.92914 83.7216 18.7924 6.3481 50.5251 -1.15178 9.40621 175.631 29.4284 83.3472 -8.44005 -8.12861 0.59591 33.3539 7.54357 24.6815 45.3555 -3.26766 -13.5088 -1.32206 9.22242 -89.9833 8.4275 -2.63081 0.186296 -3.24084 -2.62004 0.301972 -25.7964 -2.56508 -0.613522 -5.78371 -2.56506 -0.613523 111.057 -51.1726 -68.5283 22.8107 6.12611 2.96269 5.68843 -25.648 0.410697 -16.014 -1.10141 2.87541 -78.2117 -42.3896 96.2436 -29.2541 10.4628 -19.4228 24.6529 14.9603 -70.4383 -0.82536 -0.212948 -13.2951 26.9694 -4.17526 -5.38737 -21.2124 -2.35748 2.47611 
16.4949 87.8456 11.1361 93.7079 -25.4793 92.4857 -176.033 -9.27848 90.6828 -43.2457 10.9566 8.2482 78.033 11.7148 -4.23383 59.076 -0.850709 11.5127 173.708 31.0216 83.8537 -8.18138 -7.45104 1.34573 28.8235 9.04428 22.4052 52.4275 -5.26413 -13.6445 -1.59772 8.59398 -90.6853 9.67051 -3.49479 -1.08645 -1.99607 -3.5392 -0.931422 -24.5572 -3.00664 -2.08724 -4.54458 -3.00664 -2.08725 110.155 -50.9136 -69.8655 24.2648 0.727106 -1.18348 5.34575 -17.0063 -6.30215 -13.7439 -0.661432 0.416517 -78.0296 -43.1961 96.5522 -36.0945 4.24492 -19.3432 21.3709 31.2065 -46.519 0.0873781 -0.224088 -10.5849 30.3767 -2.68381 -0.321291 -23.8346 -2.71322 1.53817 
26.5105 88.0191 20.358 92.5209 -24.082 92.8641 -177.9 -5.13787 94.1549 -54.9581 9.31348 8.85433 57.3935 1.6407 -9.9672 62.6664 -2.25109 3.51735 172.676 35.9311 86.1507 -35.4653 -11.7809 3.17741 58.1786 -0.195878 8.03254 20.7504 2.02265 -3.27683 -1.36708 8.36054 -91.3243 10.1112 -3.32732 -2.35165 -1.55743 -3.42757 -2.20288 -24.0958 -2.46717 -3.24268 -4.08313 -2.46716 -3.24269 109.146 -50.0614 -71.2992 22.8146 -5.0201 -6.26654 5.61118 -14.302 -14.1975 -17.4871 -0.640485 -0.972159 -77.8519 -44.3898 96.8485 -39.8526 -3.51613 -17.9778 14.2525 45.0212 -22.0216 -1.31829 -0.149078 -10.7054 34.1075 -1.32326 2.94176 -27.7333 -2.70169 0.607233 
35.7808 87.1839 28.3382 95.1843 -28.9567 94.6652 178.673 2.84318 88.9287 -78.4278 5.20475 6.72641 56.0244 3.17164 -0.480965 59.1 -1.03375 10.1065 173.175 34.9157 89.9956 -52.2708 -16.398 1.96722 66.0038 -5.33786 2.19766 31.4738 -0.272262 -1.94596 -0.567914 8.66239 -91.5628 9.51696 -1.83625 -2.96134 -2.15584 -1.96476 -2.87774 -24.6671 -0.861908 -3.37583 -4.65441 -0.861912 -3.37583 107.014 -47.8099 -74.3953 23.9917 -5.27732 -16.4184 1.00365 -20.6665 -20.4135 -18.6046 -0.689475 -0.908285 -77.4158 -45.2838 97.5495 -36.1064 -11.0812 -14.37 9.42108 48.0265 -9.94924 -4.83768 0.051014 -10.9565 32.6401 -0.446402 5.21765 -25.3628 -2.42958 -1.27856 
43.9756 87.7888 36.1537 95.3601 -29.6839 94.6389 176.165 20.6523 89.4461 -98.0923 1.80659 4.73335 57.8108 5.47861 -1.58217 55.9228 -1.27684 8.46691 172.788 28.1912 91.4383 -55.7701 -18.9317 2.25729 72.2783 -10.5131 -4.69798 38.4719 -1.51295 1.20411 -0.0246652 8.54209 -91.694 9.76197 -0.81572 -3.29508 -1.91283 -0.959882 -3.25606 -24.4141 0.211661 -3.38784 -4.40152 0.211658 -3.38785 104.526 -44.5222 -78.2139 25.1303 -4.47552 -23.8259 -5.97717 -24.2157 -29.5353 -16.8303 -0.569488 -1.30863 -76.5132 -45.5983 98.9974 -29.375 -15.7078 -10.129 9.63188 46.1171 -9.35355 -4.66689 0.0225228 -9.96074 28.8989 -1.14835 9.6634 -25.3075 -4.23231 -3.67453 
52.1518 92.6313 44.325 96.1694 -28.3556 90.1959 179.165 35.4976 82.0137 -101.823 2.73236 3.64191 58.2565 6.02731 0.290688 53.558 -1.31435 7.82075 174.509 14.4114 88.3608 -46.0508 -18.5415 -0.296596 72.6643 -9.34644 -2.47278 40.0397 -1.76636 -5.65469 0.284092 8.41647 -91.0115 10.0375 0.106236 -2.01657 -1.63501 0.0174227 -2.01931 -24.1588 0.707283 -1.89149 -4.14616 0.70727 -1.89152 104.144 -42.5366 -78.7602 23.6979 -7.36099 -26.4669 -7.03434 -18.3281 -37.7767 -16.7133 -0.317356 -3.03998 -77.073 -43.0895 98.1338 -23.2892 -16.9866 -5.37533 10.2407 39.0354 -12.8597 -3.21765 -0.0453642 -10.487 25.584 -4.04719 10.735 -26.1031 -6.1502 -8.51553 
60.6178 99.655 51.6992 97.2715 -29.1134 87.1862 -176.709 42.1245 74.9405 -93.0221 2.83172 2.55422 57.7616 4.39487 -2.61718 53.0929 -1.33613 7.52791 174.688 4.45553 85.7809 -34.8832 -15.508 -2.48039 52.4112 3.50833 11.918 46.2549 -3.17099 -9.60479 0.679441 8.23501 -90.4245 10.4045 1.15938 -0.942892 -1.26635 1.11674 -0.992998 -23.8041 1.38915 -0.550833 -3.79145 1.38911 -0.550833 104.498 -41.1617 -78.0747 22.2282 -11.0151 -25.195 -9.49932 -15.7879 -46.3071 -13.7669 -0.188043 -3.67215 -77.4882 -41.3496 97.455 -18.2278 -17.176 -2.26984 8.59173 33.1547 -13.2763 -1.88612 -0.114313 -9.94075 18.774 -6.69101 10.7204 -25.7132 -7.26358 -12.9106 
68.5335 104.998 58.5507 98.0416 -32.8031 88.5492 -176.022 42.3738 74.6647 -81.994 0.830162 1.34033 55.5594 2.19091 -5.47438 52.2373 -1.40732 6.48935 175.073 2.71486 86.2233 -29.4805 -15.4907 -2.10057 42.8712 6.54345 20.2336 38.4095 -1.26003 -10.3776 1.05348 8.21165 -90.5339 10.4605 1.8537 -1.22464 -1.20977 1.79801 -1.30504 -23.7542 2.13604 -0.61073 -3.74152 2.13601 -0.610742 103.78 -39.5671 -79.269 20.1655 -15.018 -23.2566 -13.5249 -11.9225 -57.7017 -11.1144 -0.0599856 -4.84231 -76.8873 -40.9273 98.4809 -15.8771 -17.3948 1.64391 7.78558 27.7628 -14.0926 -0.148207 -0.185204 -9.28743 16.358 -6.53068 11.5958 -25.2528 -7.0257 -13.9064 
76.3805 107.822 65.6855 98.311 -35.2421 88.7917 -176.839 37.9839 74.9576 -68.989 -1.35845 0.117434 56.805 2.29182 -8.2532 48.3676 -1.38056 5.09445 174.419 4.09721 86.2498 -22.8086 -8.01773 -0.650398 49.3788 4.99664 19.3558 45.9014 -3.10169 -7.9208 1.17096 8.24197 -90.4676 10.4007 2.11835 -1.11441 -1.2691 2.06726 -1.20658 -23.8173 2.35531 -0.42594 -3.80462 2.35531 -0.425944 103.485 -39.4632 -79.7918 18.5174 -18.9422 -22.559 -13.9318 -6.66509 -66.9697 -11.7412 0.0277079 -5.66909 -77.5403 -38.919 97.3803 -15.0532 -17.3769 6.56746 7.47847 23.4169 -15.5672 2.21798 -0.272439 -8.89305 16.9969 -5.9017 11.3513 -26.1499 -6.14948 -14.5882 
84.2291 107.005 72.8036 96.8761 -39.211 88.495 -176.958 34.9591 76.4458 -54.9084 2.5693 -1.36312 57.0841 1.97184 -6.51606 48.3505 -1.40388 4.68072 174.896 6.18961 87.0279 -15.1366 -3.1833 0.214037 45.5515 6.7244 19.4013 50.9364 -4.68012 -12.0874 1.35109 8.12002 -90.4278 10.6468 2.49392 -1.07709 -1.0223 2.4441 -1.18585 -23.5762 2.70225 -0.277275 -3.56357 2.70226 -0.277275 103.698 -40.3666 -79.4459 15.4307 -23.6531 -25.1596 -13.8918 -3.22134 -73.0846 -13.4986 0.0455827 -5.73751 -77.0797 -39.6939 98.1724 -11.9783 -17.2938 10.0597 7.22628 20.7606 -17.7132 4.48739 -0.329575 -8.35674 17.4096 -4.93549 12.4075 -26.3626 -5.42174 -15.1243 
92.2427 102.093 79.9034 99.7239 -40.5579 91.0738 179.607 31.7 77.4861 -42.093 3.91722 -0.57261 58.7196 2.45282 -5.24425 47.3618 -1.43122 3.09601 174.05 4.57631 88.1895 -17.7917 -6.36582 1.4374 43.2661 6.64095 17.3014 53.3791 -5.20268 -9.62549 1.3767 8.27213 -90.5174 10.3439 2.50587 -1.24535 -1.32531 2.44864 -1.35447 -23.8789 2.76424 -0.434167 -3.86629 2.76424 -0.434175 103.59 -40.1574 -79.6295 15.9223 -25.233 -26.7818 -19.2425 -2.7569 -76.7432 -9.71755 -0.0665283 -4.46285 -77.2822 -39.8487 97.8215 -11.1904 -17.1969 10.8036 7.02014 19.4437 -18.6251 5.98109 -0.251508 -6.53889 15.6178 -4.80633 13.8526 -25.5997 -5.51473 -15.6535 
100.017 95.4076 87.3034 103.517 -40.0041 94.8632 174.457 27.8868 79.3802 -26.0019 6.1949 1.70382 58.1809 2.84644 -5.40122 44.2898 -1.26716 2.96992 173.069 0.996254 89.133 -37.214 -11.572 2.34265 63.933 -4.33531 -0.444651 46.0798 -2.78424 -2.20573 1.22839 8.56188 -90.6826 9.76332 2.1397 -1.52699 -1.90689 2.07043 -1.6197 -24.4534 2.49964 -0.813102 -4.44078 2.49965 -0.8131 103.164 -39.7646 -80.3759 15.6855 -28.2397 -29.7974 -16.7124 -1.61053 -77.48 -12.5515 0.121125 -6.56217 -76.3236 -41.429 99.4192 -10.2164 -17.385 7.38213 7.75758 21.8688 -18.7134 5.10778 -0.354724 -8.4026 14.9987 -4.54179 14.0014 -23.7737 -5.68409 -14.451 
108.326 90.2901 95.516 102.584 -37.8035 97.8145 172.828 26.1229 82.6229 -12.4518 10.735 2.66676 55.6084 2.37462 -5.65889 41.3695 -1.09149 3.41886 174.799 -5.5858 97.6226 -39.3589 -6.73582 3.02698 80.1678 -14.3701 -3.66691 44.5996 -2.75445 -6.78912 1.03653 8.48482 -91.0768 9.91476 1.57726 -2.25596 -1.75728 1.47648 -2.32317 -24.2905 2.18224 -1.67778 -4.27785 2.18224 -1.67778 102.925 -40.8486 -80.8221 15.9153 -29.4105 -31.1737 -15.1113 -4.77716 -71.9612 -13.023 -0.0374737 -4.99541 -75.158 -44.0808 101.249 -14.4549 -17.7022 1.39457 8.0645 19.1429 -18.1148 3.3425 -0.259781 -7.75698 15.4277 -4.40711 13.6664 -22.5229 -5.80394 -13.6975 
117.157 88.2781 104.836 96.7238 -42.4571 93.8429 175.246 29.486 84.3384 -8.75612 8.62364 1.77562 55.8734 2.47389 -2.74061 36.0088 -0.737398 2.28577 176.099 -10.7512 96.5572 -37.3395 -8.72726 0.982646 78.4474 -12.3135 -1.12703 55.361 -5.04115 -6.36556 1.3208 7.8787 -90.6047 11.1316 2.34819 -1.43203 -0.53817 2.28289 -1.53401 -23.0885 2.66995 -0.659734 -3.07587 2.66994 -0.659732 103.324 -42.6292 -80.1721 19.599 -29.2348 -30.2281 -13.7295 -15.2861 -57.0361 -6.38188 0.0322364 -6.27701 -73.8334 -46.2974 103.237 -20.1231 -15.0177 -2.79641 6.91245 14.3032 -20.6618 2.24452 -0.194891 -6.9581 17.6196 -4.40555 10.2931 -25.5906 -4.85258 -12.8125 
126.155 87.5182 114.585 94.0821 -45.6741 89.1211 177.275 34.7432 82.6296 -25.3009 5.21366 0.910929 55.8921 1.33794 0.823433 38.6562 -1.00734 5.26684 172.921 -11.2756 88.6741 -43.0333 -12.2417 -0.713101 62.9352 -1.64195 12.5348 63.3638 -5.1735 -0.264417 1.10016 7.75853 -89.613 11.3471 2.36979 0.537893 -0.321775 2.39118 0.433016 -22.8698 2.09853 1.22551 -2.85717 2.09854 1.22551 104.193 -44.9149 -78.7911 26.4055 -24.8961 -29.441 -4.54868 -29.0328 -34.6601 -9.78021 -0.126936 -3.92286 -74.6782 -47.4909 101.825 -24.4402 -11.0539 -9.35188 5.79337 17.5829 -18.1045 4.52073 -0.372762 -9.12839 25.0007 -4.60406 5.86875 -30.8815 -4.06794 -10.3955 
133.986 85.8342 124.001 96.2641 -40.8418 89.8473 -179.435 36.4688 79.0386 -45.7978 12.0483 0.0512274 58.7249 3.24111 8.82609 35.3983 -0.697604 2.68661 169.444 -2.35352 90.4042 -70.0412 -16.6031 -0.760117 52.5102 1.77655 10.101 35.1605 -0.720324 -9.66952 0.299755 8.23704 -89.1857 10.389 0.96966 1.53102 -1.28253 1.0361 1.48686 -23.8103 0.464817 1.75158 -3.79769 0.4648 1.75158 105.904 -47.5178 -76.1427 28.5313 -16.6671 -22.5293 -2.76584 -32.3861 -27.0644 -11.3993 -0.376695 -1.31831 -77.4135 -46.4004 97.5441 -31.3783 -4.20444 -20.8061 6.39866 26.6964 -18.1838 0.252486 -0.218682 -9.9976 31.0786 -5.53597 6.61557 -31.7497 -5.12114 -11.8691 
141.61 85.3132 132.52 99.385 -38.2792 92.2829 -176.712 30.6652 79.0724 -56.9112 13.6258 -0.0359585 69.3042 11.1945 10.7476 34.8608 -0.600155 1.01954 167.422 13.6452 85.7732 -104.592 -13.8288 -2.80494 52.1628 0.644593 7.08037 29.2214 -0.0116299 -0.886494 -0.451068 8.67394 -88.9927 9.52432 -0.445358 2.02987 -2.14815 -0.355596 2.04749 -24.6735 -1.03472 1.80231 -4.66082 -1.03472 1.80231 107.138 -48.6039 -74.2755 26.1614 -9.1069 -18.2301 -5.05296 -33.1341 -25.6994 -11.8234 -0.486374 -0.407398 -78.7976 -44.4868 95.3122 -34.2579 4.21397 -34.364 8.68881 37.6165 -22.2508 -4.88231 0.0548269 -10.926 28.9185 -6.34674 3.82638 -27.5297 -5.24775 -11.1515 
149.26 87.8513 140.528 99.4776 -38.3202 96.323 -177.282 22.0382 84.0313 -56.9815 15.2101 2.36265 73.3515 13.5306 10.3588 39.6722 -1.00973 4.01583 166.389 34.0359 90.1464 -123.859 -14.6661 -3.92763 51.7374 0.792926 7.92347 32.4296 -0.335019 -3.5615 -1.01945 8.58424 -89.2974 9.7154 -1.7144 1.52833 -1.9554 -1.64548 1.60231 -24.4963 -2.09442 0.942358 -4.4837 -2.09445 0.94235 107.633 -47.8954 -73.4117 23.5003 -3.10216 -13.3971 -8.10339 -30.5983 -28.5194 -14.2871 -0.782318 1.20218 -79.6689 -41.7582 93.7866 -33.9115 10.8033 -40.388 12.2258 35.6218 -33.2256 -3.35119 -0.0388395 -10.4161 25.5059 -5.69783 0.831849 -27.4813 -4.0649 -8.23819 
